<?xml version="1.0" encoding="UTF-8"?>
<svg id="Calque_1" data-name="Calque 1" xmlns="http://www.w3.org/2000/svg" viewBox="0 0 1000 670.67">
  <defs>
    <style>
      .cls-1 {
        fill: #fcf7f1;
      }
      .cls-2 {
        fill: #a7d1c9;
      }
    </style>
  </defs>
  <path class="cls-1" d="M580.77,609.27v-39.09c0-7.74,9.82-10.92,14.45-4.72,8.55,11.46,18.72,21.33,30.54,29.63,19.37,13.59,46.7,20.39,81.99,20.39s69.01-9.19,98.23-27.58c29.18-18.39,52.51-43.07,69.89-74.07,17.37-30.96,26.06-65.34,26.06-103.14,0-27.22-5.18-54.43-15.08-79.71-14.6-37.29-39.46-70.38-73.08-93.15-33.19-22.48-73.83-34.91-114-33.08-39.81,1.82-72.91,19.27-102.76,43.65-5.23,4.27-13.07.53-13.07-6.22V62.02c0-4.42-3.58-8-8-8h-86.12c-4.42,0-8,3.58-8,8v263.24c0,4.17-1.56,8.2-4.36,11.29l-73.47,80.84c-16.96,18.66-33.92,37.33-50.89,55.99-26.29,28.93-57.06,54.64-97.85,56.53-47.5,2.2-95.9-27.81-111.89-72.92-1.84-5.19,1.89-10.68,7.4-10.77,56.54-.99,113.05-1.99,169.6-2.98,3.99-.08,7.36-.05,11.36-.02,3.63.02,7.11-1.49,9.55-4.17l80.75-88.49c2.89-3.17,4.03-7.57,2.98-11.73-1.87-7.39-4.34-14.72-7.97-22.49-18.68-40.19-50.73-74.32-90.42-94.09-37.51-18.72-81.19-24.28-122.47-16.9-79.3,14.17-147.29,78.61-165.65,157.07-18.35,78.46,13.99,166.37,78.75,214.27,45.64,33.75,104.48,45.45,160.18,37.62,61.58-8.65,108.86-40.54,151.81-84.02,37.63-38.1,71.04-80.39,108.2-118.68,44.12-45.47,83.05-115.01,153.69-115.01,21.66,0,40.67,5.16,57.06,15.48,16.35,10.32,29.11,24.06,38.16,41.18,9.09,17.12,13.59,36.02,13.59,56.66s-4.51,38.16-13.59,55.57c-24.14,46.26-77.07,67.67-126.96,53.54-29.98-8.49-51.55-28.63-64.33-56.81-4.91-10.84-8.53-22.21-11.41-33.75-1.54-6.15-9.31-8.11-13.6-3.43l-86.24,94.12c-1.35,1.48-2.11,3.41-2.1,5.42l.14,89.74c0,.43.32,0,.75,0,7.81-.03,74.28-.21,93.2-.06,2.77.02,5.01-2.22,5.01-4.99ZM174.25,312.45c17.12-14.61,37.8-21.91,61.96-21.91s46.48,7.81,63.85,23.44c14.48,13.03,24.87,28.15,31.13,45.35,1.87,5.14-2.12,10.55-7.58,10.55h-172.79c-5.49,0-9.29-5.4-7.58-10.62,6.19-18.84,16.53-34.45,31.01-46.8Z"/>
  <circle class="cls-2" cx="918.65" cy="568.68" r="47.97"/>
</svg>